PathFileType	4	(X/Y/Z)	C:/Users/opensim2020/Desktop/walking_exp_matlab/subject03_walking15_straight_04.trc	
DataRate	CameraRate	NumFrames	NumMarkers	Units	OrigDataRate	OrigDataStartFrame	OrigNumFrames	
100.00	100.00	5	47	mm	100.00	2230	182	
Frame#	Time	LFHD			RFHD			LBHD			RBHD			C7			T10			CLAV			STRN			RBAK			LSHO			LUPA			LELB			LFRM			LWRA			LWRB			LFIN			RSHO			RUPA			RELB			RFRM			RWRA			RWRB			RFIN			LASI			RASI			LPSI			RPSI			LTHI			LKNE			LTIB			LANK			LHEE			LTOE			RTHI			RKNE			RTIB			RANK			RHEE			RTOE			*39			*40			*41			*42			*43			*44			*45			*46			
		X1	Y1	Z1	X2	Y2	Z2	X3	Y3	Z3	X4	Y4	Z4	X5	Y5	Z5	X6	Y6	Z6	X7	Y7	Z7	X8	Y8	Z8	X9	Y9	Z9	X10	Y10	Z10	X11	Y11	Z11	X12	Y12	Z12	X13	Y13	Z13	X14	Y14	Z14	X15	Y15	Z15	X16	Y16	Z16	X17	Y17	Z17	X18	Y18	Z18	X19	Y19	Z19	X20	Y20	Z20	X21	Y21	Z21	X22	Y22	Z22	X23	Y23	Z23	X24	Y24	Z24	X25	Y25	Z25	X26	Y26	Z26	X27	Y27	Z27	X28	Y28	Z28	X29	Y29	Z29	X30	Y30	Z30	X31	Y31	Z31	X32	Y32	Z32	X33	Y33	Z33	X34	Y34	Z34	X35	Y35	Z35	X36	Y36	Z36	X37	Y37	Z37	X38	Y38	Z38	X39	Y39	Z39	X40	Y40	Z40	X41	Y41	Z41	X42	Y42	Z42	X43	Y43	Z43	X44	Y44	Z44	X45	Y45	Z45	X46	Y46	Z46	X47	Y47	Z47	

69	0.680	-915.73682	218.62364	1602.31409	-1048.04578	224.03706	1615.10913	-918.46295	345.75427	1556.73425	-1048.73096	346.20178	1568.66479	-987.64368	372.97366	1396.60510	-1001.33313	399.96982	1085.21423	-989.26471	249.37057	1324.95496	-990.87598	200.47656	1160.83728	-1094.20325	414.48865	1222.58997	-832.17090	299.59644	1355.86401	-762.23926	339.59286	1160.54382	-748.26221	359.48141	1039.58765	-740.15161	374.68137	909.79700	-762.13470	401.09576	789.83539	-708.94763	415.06628	806.52411	-718.25049	457.79865	727.67633	-1148.47974	292.72052	1355.48145	-1230.41626	266.18240	1139.09912	-1246.56152	228.85846	1035.37122	-1242.83862	155.75751	921.22247	-1206.62952	82.46338	858.87878	-1242.09644	111.38802	832.03656	-1242.23096	50.22851	797.85620	-888.08954	230.41559	930.04144	-1121.17029	239.82993	915.77881	-930.16974	396.05676	947.09778	-1080.60242	397.78925	950.10284	-831.60376	218.46997	636.40027	-873.50708	153.56143	474.55237	-870.02643	175.40804	273.57495	-910.71112	173.72610	64.98171	-947.50012	212.90237	30.91677	-931.72235	21.49555	31.26352	-1174.12939	330.86127	623.93976	-1155.36646	346.77902	443.75342	-1163.35474	498.17093	319.14758	-1125.91162	655.86139	169.56972	-1075.86511	703.19061	189.62651	-1086.41016	618.20886	31.37356	-957.39734	304.20773	1665.19800																					 
70	0.690	-914.58337	205.34416	1603.01868	-1046.88953	210.94759	1615.86243	-917.10315	332.52341	1557.72302	-1047.38831	333.28827	1569.91321	-986.18372	360.56583	1397.05286	-1000.06921	386.78775	1086.01782	-988.20660	236.53893	1325.96448	-989.96765	187.15416	1162.02710	-1093.26807	401.75439	1223.57483	-831.04327	286.50165	1356.71277	-760.89136	324.99570	1161.21277	-747.20978	343.61258	1039.82520	-739.50531	357.14807	909.91986	-762.00354	382.33572	789.62140	-708.48724	396.15457	806.04486	-717.49695	436.84476	726.33301	-1147.20618	280.18213	1356.47241	-1228.30334	254.54594	1139.60144	-1244.04956	219.03741	1035.16760	-1240.71692	148.54370	919.35321	-1204.61890	76.47285	855.21460	-1240.15417	106.17024	829.22388	-1240.58423	46.32671	793.17505	-886.90314	217.29195	931.66925	-1119.94910	226.83011	916.73828	-929.06598	382.80502	948.54749	-1079.50085	384.99734	950.41998	-830.52417	207.29276	636.70258	-871.93524	145.61697	473.56900	-869.25677	171.22148	273.31760	-910.88300	173.53952	65.04060	-947.49969	212.97800	30.95629	-931.77295	21.32370	30.99663	-1172.79712	312.11078	622.18237	-1153.85950	323.27985	441.93100	-1162.23743	475.29474	320.09616	-1126.20459	636.83374	175.27551	-1076.73303	682.84912	200.54817	-1086.31824	610.59546	36.39134																								 
71	0.700	-913.56256	192.15765	1603.63684	-1045.84045	197.90395	1616.73755	-915.97028	319.62625	1559.08875	-1046.13989	320.42761	1571.38257	-984.81140	348.25467	1397.73999	-998.58154	373.79712	1086.93115	-987.29761	223.86447	1327.14636	-989.25055	174.20894	1163.34424	-1092.14124	389.32349	1224.60815	-829.98932	273.48611	1357.64319	-759.81207	310.16977	1161.63550	-746.24652	327.40207	1040.09033	-739.05249	339.21021	910.01038	-761.59491	362.76724	789.62854	-708.19739	376.57285	805.50684	-716.82971	414.74246	724.74976	-1146.14636	268.00281	1357.39331	-1226.34338	242.96201	1140.05823	-1241.81665	209.23322	1034.96460	-1238.75342	141.56598	917.43536	-1202.78125	70.95065	851.28351	-1238.46204	101.35254	826.26447	-1238.76831	42.92284	788.07257	-885.86609	204.31238	933.13757	-1118.82312	214.54657	917.79700	-927.81506	369.69406	949.85883	-1078.07349	372.63486	950.75531	-829.53461	197.34758	637.35516	-870.64410	138.53339	472.57071	-868.44086	167.96001	273.24948	-910.99493	173.20091	65.06642	-947.50562	213.01384	31.06157	-931.83655	21.24294	30.75416	-1171.01917	293.68182	620.69873	-1152.15002	299.08640	440.27689	-1161.45117	450.70676	320.16391	-1125.71899	617.69049	182.19666	-1076.51965	662.86871	210.25558	-1087.54614	597.90753	42.95610	-954.59198	277.50214	1667.65002																					 
72	0.710	-912.75946	178.86354	1604.31860	-1044.90479	184.87712	1617.73999	-914.90613	306.70538	1560.54150	-1045.05701	307.67743	1573.09705	-983.59442	335.87845	1398.76782	-997.09308	361.07578	1088.00391	-986.59418	211.43280	1328.45801	-988.64117	161.41486	1164.73328	-1090.73120	377.24054	1225.58313	-828.99683	260.57690	1358.63037	-758.73767	295.03384	1162.11963	-745.44836	311.08789	1040.36646	-738.71771	320.80151	910.07690	-761.58600	342.55627	789.57233	-708.06714	356.32913	804.94415	-716.36450	391.39786	723.19366	-1145.35767	256.10938	1358.38623	-1224.54907	231.56137	1140.51770	-1239.83630	199.51056	1034.70996	-1237.02222	134.77377	915.46918	-1201.07629	65.84880	847.16772	-1237.05432	96.82133	823.33118	-1236.68518	39.90936	782.69135	-885.05328	191.31184	934.43445	-1118.52368	202.58105	918.86847	-926.48181	356.88147	951.35590	-1076.49939	360.64081	951.04572	-828.67474	188.44493	638.07520	-869.60840	131.77596	471.92062	-867.70544	164.96550	273.26404	-911.01532	173.02184	65.17263	-947.51270	213.02002	31.21478	-931.95605	21.02753	30.58827	-1168.96582	275.61105	619.83167	-1150.22375	274.44147	439.18256	-1160.95239	425.59586	320.24261	-1124.19226	597.93542	189.70610	-1073.87195	642.88440	218.02460	-1089.95947	580.27356	49.71432	-952.64490	264.23483	1668.83301																					 
73	0.720	-911.94543	165.91202	1605.30457	-1044.13123	171.99129	1618.83264	-913.95068	293.92963	1562.09216	-1044.09277	295.02686	1574.83740	-982.50293	323.45703	1400.15283	-995.71558	348.47357	1089.17444	-986.03888	199.14859	1329.83545	-988.18744	148.88615	1166.14148	-1089.09900	365.46268	1226.48962	-828.14795	247.67767	1359.73608	-757.91492	279.73917	1162.70630	-744.70258	294.18158	1040.72192	-738.57068	301.83551	910.32098	-761.70721	321.81018	789.63629	-708.14355	335.54520	804.47412	-716.06543	367.03613	721.70801	-1144.76135	244.41820	1359.28906	-1222.97668	220.42540	1140.94250	-1238.09412	189.91338	1034.41309	-1235.47473	128.16734	913.49872	-1199.45544	61.16050	842.98846	-1235.89563	92.63985	820.32758	-1234.72778	37.48740	776.90393	-884.27417	178.19885	935.67743	-1118.30432	191.00768	919.94659	-925.00031	344.03119	952.72498	-1074.93018	348.81763	951.42206	-827.91766	179.99200	638.55487	-868.97839	125.68620	471.45651	-867.15338	161.95288	273.25571	-911.03052	172.80882	65.34506	-947.58087	213.03192	31.33979	-932.11078	20.91389	30.36722	-1166.90869	257.88181	619.71375	-1148.52722	249.26065	438.92148	-1159.18982	400.59619	321.78510	-1121.98462	577.16846	197.60681	-1070.27075	622.17902	224.06758	-1092.55457	558.53784	56.45848	-952.25311	250.59346	1670.31445																					 
